# xmcd CD database file
#
# Track frame offsets:
#	150
#	35625
#	63000
#	76950
#	99075
#	127500
#	149175
#	177900
#	208725
#	230625
#	239325
#	251325
#	290100
#
# Disc length: 4178 seconds
#
# Revision: 0
# Processed by: cddbd v1.5.1PL0 Copyright (c) Steve Scherf et al.
# Submitted via: CDex 1.51
#
DISCID=b510500d
DTITLE=村松健 - KEN plays KEN〜春の野を行く〜
DYEAR=2000
DGENRE=New Age
TTITLE0=浜木綿
TTITLE1=悲しいほどのムラサキ
TTITLE2=月とお話し
TTITLE3=金魚のまどろみ
TTITLE4=陽だまり
TTITLE5=春の野を行く
TTITLE6=森のピアノ
TTITLE7=出逢いと別れ
TTITLE8=見送る人
TTITLE9=失われたみち
TTITLE10=バックウォーター
TTITLE11=瞳の中の夕なぎ
TTITLE12=そぼ降る夕べ
EXTD=YEAR: 2000
EXTT0=
EXTT1=
EXTT2=
EXTT3=
EXTT4=
EXTT5=
EXTT6=
EXTT7=
EXTT8=
EXTT9=
EXTT10=
EXTT11=
EXTT12=
PLAYORDER=
